# Blender v2.75 (sub 0) OBJ File: 'Normalised.blend'
# www.blender.org
mtllib Normalised.mtl
o POLYFACE.001
v -170.000000 252.627808 41.120399
v -170.000000 302.973114 64.296600
v -170.000000 273.334991 46.519100
v -170.000000 281.302307 48.733002
v -170.000000 319.301392 67.158699
v -170.000000 328.983887 59.698002
v -170.000000 232.428802 41.050800
v -170.000000 257.100708 41.668201
v -170.000000 221.255600 34.042198
v -135.876007 260.568909 29.168400
v -170.000000 294.213501 60.048302
v -131.253403 247.945007 31.110001
v -124.949097 310.250305 33.182098
v -145.811905 305.770905 54.040798
v -124.161003 291.792297 42.352402
v -125.691399 273.918793 42.858700
v -86.568298 268.378204 32.558300
v -116.098503 245.998795 24.718100
v -148.075104 236.758408 27.455000
v -88.888901 279.346710 0.000000
v -117.423302 252.277206 0.000000
v -31.944599 294.745911 28.797800
v -43.603199 334.051605 39.457901
v -59.815800 340.000000 48.302200
v -28.747000 300.382294 35.423599
v -80.999702 322.369110 43.419701
v -96.635902 331.351501 44.846298
v -44.330502 340.000000 42.075001
v -129.077805 340.000000 45.988300
v -58.204601 325.497894 41.202499
v -52.070599 306.121704 35.533401
v -41.449699 316.440399 42.389702
v -170.000000 340.000000 56.948399
v -85.031502 340.000000 49.268299
v -52.879101 340.000000 43.984798
v -111.263298 340.000000 45.754200
v -24.038000 340.000000 35.615002
v -24.038000 340.000000 35.641701
v -8.671600 298.721100 30.456400
v 56.832001 340.000000 21.214300
v -22.419399 289.205902 25.641199
v -13.427500 340.000000 35.484299
v -7.931000 279.778198 25.271200
v -10.979800 318.755188 30.719900
v -46.142601 287.396301 25.184200
v -26.762699 245.879501 18.484699
v -23.381800 306.673187 30.548100
v -23.765499 326.161713 31.563999
v 51.119099 291.397797 13.555500
v 28.243601 262.485809 11.577400
v 44.406502 277.672302 23.110100
v -71.265701 279.803314 23.570400
v 74.888496 340.000000 23.416500
v -36.607700 253.524307 18.914600
v -14.725200 236.932205 15.267400
v 9.175400 309.967896 26.794300
v -54.527401 284.862213 24.645599
v 170.000000 291.726410 22.057501
v 170.000000 340.000000 30.254200
v 92.806396 255.033905 18.691401
v 65.280998 283.943207 11.288900
v 170.000000 240.245895 31.375299
v 45.394100 251.971405 9.854900
v 108.385696 292.474213 14.194500
v 126.320503 219.834702 27.704399
v 147.844193 308.746002 10.435400
v 103.770302 340.000000 30.730900
v -40.437099 229.958694 30.337000
v -27.820601 223.422897 24.112400
v -14.457500 218.678604 20.299299
v -170.000000 200.754700 32.239300
v -49.589901 194.432404 31.938200
v -131.253403 247.945007 31.068701
v -56.046299 238.548599 35.703300
v -122.019402 171.815506 21.280201
v -5.997000 230.314102 11.731500
v -98.363998 258.247314 37.159500
v -51.537998 213.442703 26.440800
v -70.596199 182.024796 28.729401
v -85.776199 218.144608 28.072001
v -123.691299 223.302002 21.520800
v -148.075104 236.758408 27.449100
v -35.994202 207.235794 19.103600
v 2.535600 211.966202 20.149500
v -23.579700 157.397003 30.286400
v -4.887400 147.344406 25.492599
v 50.037399 129.148407 23.736799
v 1.283300 165.730194 37.238098
v -61.523499 137.448303 5.295900
v -4.736900 199.537399 21.786200
v -31.111700 183.446304 35.037899
v -4.134800 184.830902 34.557301
v -47.743301 169.019608 21.566401
v -22.382601 87.709503 19.824224
v -97.221298 157.727905 2.170900
v 170.000000 134.131393 14.509600
v 170.000000 181.251801 25.938200
v 170.000000 200.269501 23.782000
v 124.508003 81.917397 18.596001
v -2.685100 115.263000 4.846500
v 3.370000 31.290100 15.843600
v 136.360901 134.573700 8.770300
v 170.000000 0.000000 13.465400
v 66.922997 179.121307 10.970800
v 46.928200 0.000000 12.448300
v 170.000000 111.552696 18.113100
v 170.000000 59.821499 14.274500
v 58.219501 71.275398 14.484400
v 170.000000 37.241600 13.974800
v 170.000000 89.260803 9.889900
v 126.439102 29.621799 17.731001
v 170.000000 11.780200 16.010799
v 60.028900 0.000000 10.274400
v 76.449303 0.000000 10.976700
v -2.660600 114.923103 0.000000
v -170.000000 0.000000 30.823950
v -127.380501 133.963394 21.573799
v -170.000000 130.904999 21.476900
v -91.176201 118.478699 17.759100
v -170.000000 108.395203 28.753401
v -170.000000 160.816101 24.389400
v -170.000000 148.598007 27.044901
v -170.000000 29.616199 22.180401
v -170.000000 171.305099 19.584499
v -130.687500 110.614502 17.083599
v -61.523499 137.448303 5.319100
v -58.669800 106.412102 13.266400
v -64.643204 61.401798 20.381451
v -63.325199 93.530403 9.865000
v -134.239899 85.533302 25.455400
v -110.198097 104.277496 14.899400
v -4.502200 0.000000 17.763000
v 13.926700 0.000000 20.620399
v -76.146202 0.000000 16.195999
v -53.424900 0.000000 18.570999
vt 0.255925 0.688190
vt 0.190437 0.775264
vt 0.190684 0.740694
vt 0.242033 0.792247
vt 0.192332 0.827350
vt 0.189788 0.794509
vt 0.258173 0.662844
vt 0.290020 0.655177
vt 0.186317 0.692478
vt 0.184756 0.684119
vt 0.224769 0.643222
vt 0.189532 0.724289
vt 0.279049 0.722688
vt 0.286948 0.757966
vt 0.299217 0.796068
vt 0.204748 0.848745
vt 0.358728 0.700220
vt 0.175560 0.647128
vt 0.176983 0.622280
vt 0.430488 0.839109
vt 0.465324 0.822167
vt 0.446639 0.836836
vt 0.434273 0.807033
vt 0.440801 0.770216
vt 0.475311 0.742334
vt 0.384008 0.854138
vt 0.388113 0.816278
vt 0.441783 0.774394
vt 0.295315 0.859418
vt 0.358754 0.837172
vt 0.330842 0.856724
vt 0.463982 0.789130
vt 0.434231 0.815925
vt 0.434163 0.848389
vt 0.463993 0.834962
vt 0.526027 0.745832
vt 0.499559 0.765399
vt 0.494270 0.728611
vt 0.626690 0.690411
vt 0.564125 0.763333
vt 0.448243 0.730839
vt 0.396734 0.720771
vt 0.459853 0.660449
vt 0.589618 0.657951
vt 0.522325 0.706286
vt 0.526129 0.784939
vt 0.664026 0.812476
vt 0.525500 0.827372
vt 0.647360 0.719413
vt 0.699177 0.810872
vt 0.833545 0.734078
vt 0.874928 0.693377
vt 0.899506 0.784030
vt 0.717942 0.640631
vt 0.838524 0.732255
vt 0.757531 0.710154
vt 0.757431 0.809127
vt 0.885416 0.801350
vt 0.673269 0.703298
vt 0.864313 0.593582
vt 0.774357 0.562809
vt 0.257811 0.656385
vt 0.265574 0.601606
vt 0.368285 0.515270
vt 0.259451 0.501421
vt 0.343380 0.591989
vt 0.219387 0.635315
vt 0.414858 0.534754
vt 0.414551 0.576945
vt 0.409222 0.632513
vt 0.330429 0.682516
vt 0.167790 0.568513
vt 0.465794 0.596033
vt 0.438789 0.612038
vt 0.449094 0.563331
vt 0.492999 0.582672
vt 0.449855 0.508382
vt 0.409033 0.479017
vt 0.458049 0.456691
vt 0.508171 0.541286
vt 0.499498 0.504067
vt 0.504699 0.469347
vt 0.599231 0.393047
vt 0.490158 0.431683
vt 0.373008 0.412362
vt 0.823228 0.145728
vt 0.642321 0.129904
vt 0.822154 0.122573
vt 0.740678 0.184097
vt 0.828102 0.238259
vt 0.742429 0.286647
vt 0.825913 0.194748
vt 0.832893 0.295377
vt 0.775782 0.388946
vt 0.645069 0.490034
vt 0.579125 0.125151
vt 0.485566 0.358849
vt 0.492065 0.188760
vt 0.841087 0.340527
vt 0.229808 0.397720
vt 0.145797 0.451138
vt 0.144972 0.426582
vt 0.357542 0.317091
vt 0.367758 0.342822
vt 0.302416 0.367564
vt 0.354319 0.250252
vt 0.264969 0.337775
vt 0.214318 0.297853
vt 0.145764 0.390171
vt 0.141056 0.187763
vt 0.144940 0.127260
vt 0.364242 0.406770
vt 0.240161 0.472419
vt 0.224055 0.350331
vt 0.143182 0.343718
vt 0.163987 0.504855
vt 0.331937 0.127659
vt 0.146006 0.473764
vt 0.211526 0.870752
vt 0.000681 0.966036
vt 0.000098 0.966036
vt 0.439175 0.301969
vt 0.171001 0.583908
vt 0.503133 0.801847
vt 0.504147 0.829290
vt 0.447087 0.729549
vt 0.483051 0.757706
vt 0.448963 0.730167
vt 0.477454 0.642452
vt 0.517101 0.605700
vt 0.500491 0.620709
vt 0.505470 0.829402
vt 0.619734 0.634613
vt 0.524789 0.564096
vt 0.856443 0.515361
vt 0.841993 0.384548
vt 0.852313 0.478372
vt 0.610166 0.271659
vt 0.610903 0.130993
vt 0.511769 0.124391
vt 0.605715 0.124928
vt 0.474764 0.125825
vt 0.377336 0.126530
vn 0.030700 -0.658800 0.751700
vn 0.400900 -0.158200 0.902400
vn 0.396600 -0.400600 0.826000
vn 0.403400 0.281600 0.870600
vn 0.468800 -0.107400 0.876800
vn 0.520900 0.312900 0.794200
vn 0.363100 -0.249500 0.897700
vn -0.260300 -0.587300 0.766400
vn 0.189900 -0.281100 0.940700
vn 0.359900 -0.004400 0.933000
vn 0.584300 0.495300 0.642800
vn -0.043200 -0.699000 0.713800
vn 0.615300 0.371700 0.695200
vn 0.460700 0.410600 0.786900
vn 0.527400 -0.002900 0.849600
vn 0.533200 -0.449500 0.716700
vn 0.125600 -0.473700 0.871700
vn 0.339100 -0.236300 0.910600
vn 0.600800 0.406700 0.688200
vn 0.520200 0.175100 0.835900
vn 0.197100 -0.217300 0.956000
vn 0.094200 -0.294000 0.951200
vn 0.013100 -0.082500 0.996500
vn 0.020200 0.166600 0.985800
vn 0.328800 -0.385500 0.862100
vn 0.165000 -0.228500 0.959500
vn -0.376600 -0.604700 0.701800
vn 0.034400 -0.436300 0.899100
vn 0.202200 -0.373600 0.905300
vn -0.107000 -0.335000 0.936100
vn -0.126100 -0.312200 0.941600
vn -0.142700 -0.275000 0.950800
vn 0.161700 0.064100 0.984800
vn -0.007500 -0.184000 0.982900
vn -0.096100 -0.535100 0.839300
vn 0.237100 -0.247900 0.939300
vn 0.195200 0.009600 0.980700
vn 0.195300 -0.193100 0.961500
vn 0.224000 -0.177300 0.958300
vn -0.149100 -0.266500 0.952200
vn 0.160500 -0.071700 0.984400
vn 0.424200 0.368400 0.827200
vn -0.119900 -0.140800 0.982800
vn -0.542500 -0.140600 0.828200
vn 0.054900 0.096500 0.993800
vn 0.006100 -0.538600 0.842600
vn -0.097600 0.158600 0.982500
vn 0.001300 -0.328500 0.944500
vn -0.354700 0.166500 0.920000
vn -0.188200 0.231000 0.954600
vn -0.050600 0.202200 0.978000
vn 0.213300 -0.302500 0.929000
vn -0.447200 -0.439100 0.779200
vn -0.141600 -0.009200 0.989900
vn 0.106600 0.062800 0.992300
vn 0.237900 0.003200 0.971300
vn -0.129800 -0.036500 0.990900
vn -0.138000 -0.364500 0.920900
vn 0.220200 -0.004300 0.975400
vn 0.245900 -0.376100 0.893400
vn 0.084600 0.284800 0.954800
vn 0.500300 0.287500 0.816700
vn 0.042700 -0.035200 0.998500
vn 0.033000 -0.352300 0.935300
vn 0.255100 -0.401100 0.879800
vn 0.137600 -0.355500 0.924500
vn 0.146300 -0.319200 0.936300
vn -0.443200 -0.283300 0.850500
vn -0.020200 0.655100 0.755300
vn 0.010400 0.141900 0.989800
vn 0.423800 0.242700 0.872700
vn -0.062800 -0.522300 0.850500
vn -0.190100 -0.229100 0.954700
vn 0.643800 0.516600 0.564500
vn -0.434500 -0.255400 0.863700
vn -0.138300 -0.499800 0.855000
vn -0.026000 -0.211100 0.977100
vn 0.088200 -0.013200 0.996000
vn 0.299400 0.083100 0.950500
vn 0.163300 0.145300 0.975800
vn 0.129600 0.153600 0.979600
vn -0.031400 -0.171600 0.984700
vn 0.071800 0.079500 0.994200
vn 0.176700 0.140300 0.974200
vn -0.445400 -0.309900 0.840000
vn 0.194600 0.208300 0.958500
vn 0.034100 -0.266700 0.963200
vn 0.173800 0.304400 0.936500
vn 0.012000 -0.212800 0.977000
vn 0.019400 -0.300100 0.953700
vn -0.163600 -0.576400 0.800600
vn -0.465500 0.248000 0.849600
vn 0.226600 0.261100 0.938300
vn 0.065000 -0.001500 0.997900
vn 0.044200 -0.194700 0.979900
vn 0.045200 -0.255100 0.965900
vn 0.256200 0.297300 0.919800
vn 0.038700 -0.083100 0.995800
vn 0.259600 0.272500 0.926500
vn -0.028300 -0.394600 0.918400
vn 0.153300 -0.095800 0.983500
vn 0.169700 0.300300 0.938600
vn 0.188800 0.286800 0.939200
vn 0.011400 -0.190400 0.981600
vn 0.082400 0.028100 0.996200
vn -0.036500 0.416200 0.908500
vn 0.557600 0.201000 0.805400
vn 0.317100 0.121200 0.940600
vn 0.101900 -0.006700 0.994800
vn 0.209500 0.009800 0.977800
vn 0.039000 0.039000 -0.998500
vn 0.459300 0.147800 0.875900
vn -0.182300 0.312600 0.932200
vn -0.049600 0.243500 0.968600
vn -0.254700 -0.159800 0.953700
vn 0.339700 -0.082400 0.936900
vn 0.321300 0.281000 0.904300
vn 0.292600 -0.263300 0.919200
vn 0.211800 -0.371800 0.903800
vn -0.178100 -0.449000 0.875600
vn -0.075300 -0.403100 0.912100
vn 0.023800 -0.477800 0.878100
vn -0.069500 -0.409600 0.909600
vn 0.610900 0.202100 0.765400
vn -0.381600 -0.605000 0.698800
vn 0.588300 0.118300 0.800000
vn 0.355000 -0.041700 0.933900
vn 0.011100 -0.420500 0.907200
vn 0.082900 -0.461800 0.883100
vn 0.241800 -0.355100 0.903000
vn -0.022100 -0.052500 0.998400
vn -0.126800 -0.217700 0.967800
vn 0.272500 -0.148500 0.950600
vn -0.181900 -0.703900 0.686600
vn 0.227000 -0.157300 0.961100
vn 0.750800 -0.140000 0.645600
vn 0.014500 -0.217200 0.976000
vn -0.101000 -0.283000 0.953800
vn 0.062500 -0.005900 0.998000
vn 0.116800 -0.193200 0.974200
vn -0.133900 -0.216700 0.967000
vn 0.041300 -0.218000 0.975100
vn -0.192100 -0.455700 0.869200
vn 0.007900 -0.003600 1.000000
vn -0.235800 -0.054800 0.970300
vn 0.132700 0.054400 0.989700
vn 0.307900 0.500400 0.809200
vn -0.242100 -0.165300 0.956100
vn -0.356300 -0.439100 0.824800
vn 0.351800 0.412800 0.840100
vn 0.392700 0.206100 0.896300
vn 0.152200 0.256300 0.954500
vn 0.347700 0.253900 0.902600
vn 0.512800 0.235100 0.825700
vn 0.258600 0.359100 0.896800
vn 0.345600 0.717400 0.604900
vn 0.408700 0.393000 0.823700
vn 0.541000 0.294000 0.787900
vn 0.462400 0.324800 0.825100
vn -0.261800 -0.474600 0.840400
vn 0.218100 0.227600 0.949000
vn 0.159300 0.036700 0.986500
vn 0.198500 0.483500 0.852600
vn -0.075900 0.038800 0.996400
vn -0.153200 -0.542200 0.826200
vn -0.077800 -0.543300 0.835900
vn -0.034300 -0.470500 0.881700
vn 0.152400 0.385700 0.910000
vn 0.078300 -0.371800 0.925000
vn -0.365500 -0.374400 0.852200
vn -0.212800 -0.580200 0.786200
vn 0.376700 0.525300 0.763000
vn 0.068500 0.564900 0.822300
vn 0.196700 0.179800 0.963800
vn 0.049100 0.102100 0.993600
vn 0.208000 0.573400 0.792400
vn 0.014300 -0.463000 0.886300
vn 0.004600 -0.186600 0.982400
vn -0.166500 -0.232400 0.958300
vn -0.115800 -0.228300 0.966700
vn 0.138300 0.111600 0.984100
vn -0.164200 0.155500 0.974100
vn -0.286200 -0.190600 0.939000
vn -0.200100 -0.062800 0.977800
vn 0.183700 0.184600 0.965500
vn -0.154500 -0.177200 0.972000
vn 0.234300 0.223500 0.946100
vn 0.162200 0.134300 0.977600
vn -0.042200 -0.153800 0.987200
vn -0.084500 -0.060900 0.994600
vn 0.059800 -0.014300 0.998100
vn 0.044400 -0.050100 0.997800
vn 0.033600 -0.074200 0.996700
vn -0.152500 0.098700 0.983400
vn 0.016500 0.057100 0.998200
vn -0.100200 0.265500 0.958900
usemtl None
s off
f 10/1/1 11/2/1 4/3/1
f 14/4/2 5/5/2 2/6/2
f 14/4/3 2/6/3 11/2/3
f 12/7/4 18/8/4 10/1/4
f 8/9/5 1/10/5 19/11/5
f 3/12/6 12/7/6 10/1/6
f 10/1/7 4/3/7 3/12/7
f 16/13/8 10/1/8 18/8/8
f 12/7/9 3/12/9 8/9/9
f 16/13/10 15/14/10 11/2/10
f 13/15/11 6/16/11 5/5/11
f 10/1/12 16/13/12 11/2/12
f 15/14/13 13/15/13 14/4/13
f 13/15/14 15/14/14 17/17/14
f 19/11/15 1/10/15 7/18/15
f 19/11/16 7/18/16 9/19/16
f 8/9/17 19/11/17 12/7/17
f 14/4/18 11/2/18 15/14/18
f 5/5/19 14/4/19 13/15/19
f 24/20/20 23/21/20 35/22/20
f 30/23/21 31/24/21 22/25/21
f 34/26/22 26/27/22 31/28/22
f 29/29/23 27/30/23 36/31/23
f 32/32/24 23/21/24 30/23/24
f 24/20/25 30/23/25 23/21/25
f 34/26/26 31/28/26 30/33/26
f 30/23/27 22/25/27 32/32/27
f 30/33/28 24/34/28 34/26/28
f 23/21/29 28/35/29 35/22/29
f 34/26/30 27/30/30 26/27/30
f 27/30/31 34/26/31 36/31/31
f 39/36/32 47/37/32 41/38/32
f 51/39/33 56/40/33 39/36/33
f 45/41/34 52/42/34 54/43/34
f 39/36/35 50/44/35 51/39/35
f 39/36/36 43/45/36 50/44/36
f 44/46/37 39/36/37 56/40/37
f 44/46/38 40/47/38 42/48/38
f 40/47/39 56/40/39 49/49/39
f 39/36/40 41/38/40 43/45/40
f 56/40/41 40/47/41 44/46/41
f 51/39/42 49/49/42 56/40/42
f 40/47/43 49/49/43 53/50/43
f 66/51/44 58/52/44 59/53/44
f 60/54/45 66/55/45 64/56/45
f 67/57/46 66/55/46 59/58/46
f 64/56/47 61/59/47 60/54/47
f 67/57/48 61/59/48 64/56/48
f 66/51/49 62/60/49 58/52/49
f 62/60/50 66/51/50 65/61/50
f 60/54/51 65/61/51 66/51/51
f 67/57/52 64/56/52 66/55/52
f 73/62/53 81/63/53 79/64/53
f 75/65/54 79/64/54 81/63/54
f 73/62/55 79/64/55 80/66/55
f 81/63/56 82/67/56 75/65/56
f 72/68/57 80/66/57 79/64/57
f 78/69/58 74/70/58 77/71/58
f 82/67/59 71/72/59 75/65/59
f 78/69/60 69/73/60 68/74/60
f 72/68/61 78/69/61 80/66/61
f 78/69/62 72/68/62 83/75/62
f 73/62/63 80/66/63 78/69/63
f 73/62/64 82/67/64 81/63/64
f 78/69/65 83/75/65 69/73/65
f 70/76/66 69/73/66 83/75/66
f 78/69/67 68/74/67 74/70/67
f 91/77/68 93/78/68 85/79/68
f 90/80/69 91/77/69 92/81/69
f 88/82/70 92/81/70 91/77/70
f 88/82/71 87/83/71 92/81/71
f 88/82/72 85/79/72 86/84/72
f 91/77/73 85/79/73 88/82/73
f 90/80/74 92/81/74 87/83/74
f 89/85/75 85/79/75 93/78/75
f 87/83/76 88/82/76 86/84/76
f 112/86/77 114/87/77 103/88/77
f 111/89/78 107/90/78 99/91/78
f 111/89/78 109/92/78 107/90/78
f 15/14/79 77/71/79 17/17/79
f 99/91/80 107/90/80 110/93/80
f 99/91/80 110/93/80 102/94/80
f 104/95/81 99/91/81 102/94/81
f 111/89/82 114/87/82 112/86/82
f 111/89/83 112/86/83 109/92/83
f 105/96/84 100/97/84 101/98/84
f 110/93/85 106/99/85 102/94/85
f 117/100/86 121/101/86 122/102/86
f 129/103/87 127/104/87 119/105/87
f 128/106/88 131/107/88 130/108/88
f 131/107/89 119/105/89 117/100/89
f 117/100/90 122/102/90 118/109/90
f 16/13/91 18/8/91 77/71/91
f 130/108/92 123/110/92 116/111/92
f 126/112/93 119/105/93 127/104/93
f 117/100/94 75/113/94 121/101/94
f 131/107/95 117/100/95 125/114/95
f 129/103/96 119/105/96 131/107/96
f 125/114/97 118/109/97 120/115/97
f 130/108/98 120/115/98 123/110/98
f 125/114/99 120/115/99 130/108/99
f 75/65/100 71/72/100 124/116/100
f 134/117/101 128/106/101 116/111/101
f 128/106/102 129/103/102 131/107/102
f 130/108/103 131/107/103 125/114/103
f 117/100/104 118/109/104 125/114/104
f 130/108/105 116/111/105 128/106/105
f 75/113/106 124/118/106 121/101/106
f 33/119/107 6/16/107 13/15/107
f 75/113/108 119/105/108 126/112/108
f 75/113/109 117/100/109 119/105/109
f 15/14/110 16/13/110 77/71/110
f 45/120/111 52/121/111 57/120/111
f 101/98/112 100/97/112 94/122/112
f 128/106/113 94/122/113 129/103/113
f 126/112/114 127/104/114 94/122/114
f 127/104/115 129/103/115 94/122/115
f 19/11/116 9/19/116 71/123/116
f 13/15/117 17/17/117 52/42/117
f 48/124/118 37/125/118 28/35/118
f 28/35/119 23/21/119 48/124/119
f 52/42/120 26/27/120 27/30/120
f 29/29/121 13/15/121 27/30/121
f 22/25/122 31/24/122 45/126/122
f 52/42/123 27/30/123 13/15/123
f 47/37/124 23/21/124 32/32/124
f 32/32/125 22/25/125 25/127/125
f 25/127/126 47/37/126 32/32/126
f 47/37/127 48/124/127 23/21/127
f 52/42/128 31/28/128 26/27/128
f 52/42/129 45/128/129 31/28/129
f 29/29/130 33/119/130 13/15/130
f 39/36/131 48/124/131 47/37/131
f 22/25/132 54/43/132 46/129/132
f 76/130/133 41/38/133 55/131/133
f 22/25/134 41/38/134 25/127/134
f 55/131/135 41/38/135 22/25/135
f 41/38/136 47/37/136 25/127/136
f 76/130/40 43/45/40 41/38/40
f 44/46/137 42/48/137 38/132/137
f 38/132/138 48/124/138 44/46/138
f 43/45/36 76/130/36 50/44/36
f 39/36/139 44/46/139 48/124/139
f 55/131/140 22/25/140 46/129/140
f 22/25/141 45/126/141 54/43/141
f 53/50/142 49/49/142 61/59/142
f 50/44/143 63/133/143 51/39/143
f 104/95/144 50/44/144 76/130/144
f 104/95/145 65/61/145 63/133/145
f 104/95/146 63/133/146 50/44/146
f 51/39/147 65/61/147 60/54/147
f 67/57/148 53/50/148 61/59/148
f 51/39/149 63/133/149 65/61/149
f 51/39/147 60/54/147 61/59/147
f 51/39/150 61/59/150 49/49/150
f 55/131/151 46/129/151 69/73/151
f 77/71/152 74/70/152 17/17/152
f 55/131/153 69/73/153 70/76/153
f 55/131/154 70/76/154 76/130/154
f 52/42/155 17/17/155 74/70/155
f 73/62/156 78/69/156 18/8/156
f 52/42/157 74/70/157 54/43/157
f 54/43/158 68/74/158 69/73/158
f 54/43/159 74/70/159 68/74/159
f 78/69/160 77/71/160 18/8/160
f 54/43/161 69/73/161 46/129/161
f 84/134/162 90/80/162 104/95/162
f 76/130/163 70/76/163 84/134/163
f 90/80/164 70/76/164 83/75/164
f 100/97/165 87/83/165 86/84/165
f 100/97/166 86/84/166 85/79/166
f 89/85/167 79/64/167 75/65/167
f 89/85/168 94/122/168 100/97/168
f 72/68/169 79/64/169 93/78/169
f 91/77/170 72/68/170 93/78/170
f 100/97/171 85/79/171 89/85/171
f 76/130/172 84/134/172 104/95/172
f 90/80/173 83/75/173 91/77/173
f 90/80/174 87/83/174 104/95/174
f 90/80/175 84/134/175 70/76/175
f 72/68/176 91/77/176 83/75/176
f 89/85/177 93/78/177 79/64/177
f 65/61/178 98/135/178 62/60/178
f 96/136/179 97/137/179 65/61/179
f 102/94/180 65/61/180 104/95/180
f 65/61/181 97/137/181 98/135/181
f 96/136/179 65/61/179 102/94/179
f 102/94/182 106/99/182 96/136/182
f 87/83/183 100/97/183 108/138/183
f 113/139/184 108/138/184 100/97/184
f 104/95/185 87/83/185 99/91/185
f 87/83/186 108/138/186 111/89/186
f 101/98/187 133/140/187 105/96/187
f 113/141/188 100/97/188 105/96/188
f 113/139/189 114/87/189 111/89/189
f 113/139/190 111/89/190 108/138/190
f 87/83/191 111/89/191 99/91/191
f 94/122/192 128/106/192 101/98/192
f 134/117/193 101/98/193 128/106/193
f 101/98/194 132/142/194 133/140/194
f 101/98/195 135/143/195 132/142/195
f 134/117/196 135/143/196 101/98/196
